# xmcd CD database file
#
# Track frame offsets:
#	150
#	13740
#	26858
#	39708
#	53241
#	67146
#	81158
#	93763
#	106986
#	120344
#	131628
#	144880
#	157281
#	168614
#	180021
#	190385
#	206061
#	217056
#	229530
#	241590
#
# Disc length: 3380 seconds
#
# Revision: 1
# Processed by: cddbd v1.5.2PL0 Copyright (c) Steve Scherf et al.
# Submitted via: CDex 1.77
#
DISCID=160d3214
DTITLE=T-Bone Walker - Anthology [cd2] 
DYEAR=1900
DGENRE=Blues
TTITLE0=T-Bone Shuffle
TTITLE1=That old feelin' is gone
TTITLE2=Prison blues
TTITLE3=Wise man blues
TTITLE4=Go back to the one you love
TTITLE5=Plain old down home blues
TTITLE6=I want a little girl
TTITLE7=You're my best pocker hand
TTITLE8=I'm still in love with you
TTITLE9=Strollin' with bones
TTITLE10=You don't love me
TTITLE11=Glamour girl
TTITLE12=The hustle is on
TTITLE13=No reason
TTITLE14=I walked away
TTITLE15=Too lazy
TTITLE16=Say pretty baby
TTITLE17=Lige is too short
TTITLE18=Tell me what's the reason
TTITLE19=I get so weary
EXTD=
EXTT0=
EXTT1=
EXTT2=
EXTT3=
EXTT4=
EXTT5=
EXTT6=
EXTT7=
EXTT8=
EXTT9=
EXTT10=
EXTT11=
EXTT12=
EXTT13=
EXTT14=
EXTT15=
EXTT16=
EXTT17=
EXTT18=
EXTT19=
PLAYORDER=
